<svg xmlns="http://www.w3.org/2000/svg" aria-hidden="true" fill="currentColor" width="1000" height="765" viewBox="-50 -50 135 765">
  <path id="katakana-profile" d="M 174.8 36 L 176.6 35.8 L 178.7 52 L 176.8 52.2 A 3.17 3.17 0 0 0 176.644 51.626 Q 176.516 51.277 176.3 50.9 A 2.092 2.092 0 0 0 176.132 50.647 Q 175.797 50.221 175.4 50.3 L 148.2 53.6 L 153 81.7 Q 153.076 82.082 153.562 82.289 A 2.266 2.266 0 0 0 153.9 82.4 A 4.507 4.507 0 0 0 154.549 82.515 Q 154.739 82.533 154.922 82.533 A 3.375 3.375 0 0 0 155.4 82.5 L 155.6 84.4 L 139.1 86.8 L 138.8 84.9 A 3.449 3.449 0 0 0 139.987 84.495 A 4.024 4.024 0 0 0 140.15 84.4 A 1.892 1.892 0 0 0 140.396 84.222 Q 140.713 83.948 140.713 83.632 A 0.67 0.67 0 0 0 140.7 83.5 L 135.9 55.1 L 107.1 58.6 Q 106.224 58.697 106.201 60.784 A 10.347 10.347 0 0 0 106.2 60.9 L 104.4 61.1 L 102.3 44.9 L 104.2 44.7 A 3.17 3.17 0 0 0 104.356 45.274 Q 104.484 45.623 104.7 46 A 2.092 2.092 0 0 0 104.868 46.253 Q 105.203 46.679 105.6 46.6 L 133.9 43.2 L 132.1 32.6 L 104.1 36 Q 103.224 36.097 103.201 38.184 A 10.347 10.347 0 0 0 103.2 38.3 L 101.4 38.5 L 99.3 22.2 L 101.2 22 A 3.17 3.17 0 0 0 101.356 22.574 Q 101.484 22.923 101.7 23.3 A 2.092 2.092 0 0 0 101.868 23.553 Q 102.203 23.979 102.6 23.9 L 130 20.6 L 127.4 5.1 Q 127.324 4.718 126.838 4.511 A 2.266 2.266 0 0 0 126.5 4.4 A 4.507 4.507 0 0 0 125.851 4.285 Q 125.661 4.267 125.478 4.267 A 3.375 3.375 0 0 0 125 4.3 L 124.8 2.4 L 141.3 0 L 141.6 1.9 A 3.449 3.449 0 0 0 140.413 2.305 A 4.024 4.024 0 0 0 140.25 2.4 A 1.892 1.892 0 0 0 140.004 2.578 Q 139.687 2.852 139.687 3.168 A 0.67 0.67 0 0 0 139.7 3.3 L 142.4 19.1 L 170.9 15.6 Q 171.776 15.503 171.799 13.416 A 10.347 10.347 0 0 0 171.8 13.3 L 173.6 13.1 L 175.7 29.4 L 173.8 29.6 A 3.17 3.17 0 0 0 173.644 29.026 Q 173.516 28.677 173.3 28.3 A 2.092 2.092 0 0 0 173.132 28.047 Q 172.797 27.621 172.4 27.7 L 144.4 31.1 L 146.2 41.7 L 173.9 38.3 Q 174.776 38.203 174.799 36.116 A 10.347 10.347 0 0 0 174.8 36 Z M 71 11 L 72.3 9.6 L 85.4 21.7 L 84.1 23.1 A 3.612 3.612 0 0 0 83.484 22.611 Q 83.18 22.417 82.812 22.255 A 5.783 5.783 0 0 0 82.8 22.25 Q 82 21.9 81.6 22.3 L 46.8 58.2 L 58.6 69.6 A 0.675 0.675 0 0 0 59.081 69.8 A 0.886 0.886 0 0 0 59.1 69.8 A 1.894 1.894 0 0 0 59.877 69.622 Q 60.422 69.378 61 68.8 L 62.4 70.1 L 50.2 82.4 L 48.9 81.1 A 8.568 8.568 0 0 0 49.282 80.603 Q 50.099 79.447 49.8 78.849 A 0.735 0.735 0 0 0 49.7 78.7 L 16.7 46.6 A 0.675 0.675 0 0 0 16.219 46.4 A 0.886 0.886 0 0 0 16.2 46.4 Q 15.4 46.4 14.4 47.4 L 13 46.1 L 25.1 33.8 L 26.4 35.1 A 3.44 3.44 0 0 0 25.807 35.906 A 4.291 4.291 0 0 0 25.6 36.35 Q 25.376 36.91 25.486 37.274 A 0.72 0.72 0 0 0 25.6 37.5 L 37.3 48.9 L 59.1 26.5 L 3 26.5 A 0.618 0.618 0 0 0 2.559 26.691 Q 2.354 26.891 2.2 27.3 A 5.062 5.062 0 0 0 1.985 28.028 A 3.727 3.727 0 0 0 1.9 28.8 L 0 28.8 L 0 10.9 L 1.9 10.9 A 3.743 3.743 0 0 0 1.99 11.696 A 5.088 5.088 0 0 0 2.2 12.4 A 2.388 2.388 0 0 0 2.341 12.712 Q 2.537 13.069 2.799 13.165 A 0.58 0.58 0 0 0 3 13.2 L 72 13.2 Q 72.081 13.119 72.096 12.906 A 1.484 1.484 0 0 0 72.1 12.8 A 1.158 1.158 0 0 0 72.053 12.486 Q 71.974 12.207 71.764 11.872 A 3.908 3.908 0 0 0 71.75 11.85 A 4.057 4.057 0 0 0 71.457 11.444 Q 71.292 11.245 71.118 11.095 A 2.287 2.287 0 0 0 71 11 Z M 381.5 74.8 L 382.5 76.4 L 367.3 84.8 L 366.4 83.1 A 3.538 3.538 0 0 0 367.059 82.668 A 4.772 4.772 0 0 0 367.55 82.2 A 2.185 2.185 0 0 0 367.745 81.957 Q 367.953 81.651 367.953 81.374 A 0.731 0.731 0 0 0 367.9 81.1 L 362.7 71.7 L 302.3 78.1 A 0.735 0.735 0 0 0 301.848 78.397 Q 301.757 78.518 301.687 78.687 A 2.146 2.146 0 0 0 301.6 78.95 Q 301.4 79.7 301.5 80.5 L 299.6 80.7 L 297.4 62.9 L 299.3 62.7 Q 299.394 63.356 299.751 64.1 A 6.989 6.989 0 0 0 299.8 64.2 Q 300.156 64.911 300.59 64.911 A 0.559 0.559 0 0 0 300.7 64.9 L 304.8 64.5 L 331 7.9 L 331.1 7.6 A 0.521 0.521 0 0 0 331.004 7.335 Q 330.685 6.826 329.3 5.868 A 24.81 24.81 0 0 0 329.2 5.8 L 330 4.1 L 347.6 12.6 L 346.7 14.3 Q 345.718 13.809 344.832 13.8 A 3.249 3.249 0 0 0 344.8 13.8 A 1.854 1.854 0 0 0 344.531 13.818 Q 344.079 13.884 344 14.2 L 321 62.8 L 355.9 59.2 L 349.7 47.9 A 0.476 0.476 0 0 0 349.37 47.553 Q 349.218 47.5 349 47.5 A 2.504 2.504 0 0 0 348.458 47.565 Q 347.941 47.68 347.3 48 L 346.4 46.3 L 360.9 38.4 L 361.8 40 Q 360.391 40.939 360.391 41.633 A 0.681 0.681 0 0 0 360.5 42 L 379 74.9 A 0.453 0.453 0 0 0 379.269 75.209 Q 379.454 75.294 379.758 75.3 A 2.356 2.356 0 0 0 379.8 75.3 A 2.504 2.504 0 0 0 380.342 75.235 Q 380.855 75.121 381.49 74.805 A 7.754 7.754 0 0 0 381.5 74.8 Z M 269.7 19.1 L 271 17.7 L 284.8 30.1 L 283.5 31.5 Q 282.9 31 282.15 30.7 A 2.114 2.114 0 0 0 281.923 30.623 Q 281.529 30.515 281.248 30.632 A 0.762 0.762 0 0 0 281 30.8 A 313.029 313.029 0 0 1 267.052 45.893 Q 259.267 53.755 251.75 60.05 A 198.755 198.755 0 0 1 235.206 72.429 A 266.622 266.622 0 0 1 218.1 83 Q 217.8 83.2 217.8 83.7 Q 217.8 84.7 218.4 85.5 L 216.8 86.5 L 206.8 70.8 L 208.4 69.7 A 4.567 4.567 0 0 0 208.924 70.43 A 6.277 6.277 0 0 0 209.55 71.05 A 2.87 2.87 0 0 0 209.799 71.245 Q 210.386 71.649 210.8 71.4 A 265.013 265.013 0 0 0 226.832 61.99 Q 234.575 57.049 241.003 52.057 A 149.589 149.589 0 0 0 243.9 49.75 Q 256.436 39.506 269.235 23.879 A 260.095 260.095 0 0 0 271 21.7 Q 271.081 21.619 271.096 21.406 A 1.484 1.484 0 0 0 271.1 21.3 Q 271.1 20.8 270.65 20.15 A 5.827 5.827 0 0 0 270.217 19.596 Q 269.97 19.317 269.708 19.107 A 3.612 3.612 0 0 0 269.7 19.1 Z M 210.3 16.1 L 210.1 16.1 A 0.724 0.724 0 0 0 209.75 16.196 Q 209.631 16.261 209.513 16.369 A 2.052 2.052 0 0 0 209.3 16.6 Q 208.9 17.1 208.7 17.6 L 206.9 17.1 L 211.7 1.8 L 213.5 2.4 A 0.545 0.545 0 0 0 213.461 2.516 Q 213.414 2.716 213.403 3.135 A 10.402 10.402 0 0 0 213.4 3.4 A 3.737 3.737 0 0 0 213.427 3.865 Q 213.515 4.569 213.9 4.8 L 236.5 12.3 L 236.7 12.3 A 0.666 0.666 0 0 0 237.034 12.204 Q 237.248 12.081 237.462 11.8 A 2.73 2.73 0 0 0 237.5 11.75 A 5.994 5.994 0 0 0 237.812 11.278 Q 237.988 10.981 238.1 10.7 L 239.9 11.3 L 235 26.6 L 233.1 26 A 3.779 3.779 0 0 0 233.3 24.819 A 3.602 3.602 0 0 0 233.3 24.8 A 3.053 3.053 0 0 0 233.276 24.401 Q 233.22 23.976 233.031 23.763 A 0.607 0.607 0 0 0 232.8 23.6 L 210.3 16.1 Z M 201.6 37.9 L 201.4 37.9 A 0.994 0.994 0 0 0 200.8 38.105 Q 200.663 38.206 200.536 38.356 A 2.03 2.03 0 0 0 200.5 38.4 Q 200.1 38.9 199.9 39.5 L 198.1 38.8 L 203.3 23.9 L 205.1 24.5 A 4.296 4.296 0 0 0 204.963 25.006 Q 204.908 25.28 204.901 25.529 A 2.554 2.554 0 0 0 204.9 25.6 Q 204.9 26.5 205.4 26.8 L 228 34.3 L 228.2 34.3 A 0.994 0.994 0 0 0 228.8 34.095 Q 228.937 33.994 229.064 33.844 A 2.03 2.03 0 0 0 229.1 33.8 Q 229.5 33.3 229.7 32.7 L 231.5 33.4 L 226.3 48.3 L 224.5 47.7 A 4.296 4.296 0 0 0 224.637 47.194 Q 224.692 46.92 224.699 46.671 A 2.554 2.554 0 0 0 224.7 46.6 A 3.053 3.053 0 0 0 224.676 46.201 Q 224.62 45.776 224.431 45.563 A 0.607 0.607 0 0 0 224.2 45.4 L 201.6 37.9 Z" 
  transform="translate(115, 150) " />

</svg>
